# xmcd
#
# Track frame offsets:
#	150
#	17980
#	34702
#	51152
#	62207
#	78407
#	92205
#	104347
#	117987
#	135550
#	144357
#
# Disc length: 2109 seconds
#
# Revision: 0
# Processed by: cddbd v1.5.2PL0 Copyright (c) Steve Scherf et al.
# Submitted via: EasyCDDAExtractor 10.0.6.1
#
DISCID=95083b0b
DTITLE=Various Artist - Cooke Records and Maggard Sound Studio Vol. 6
DYEAR=1900
DGENRE=Gospel
TTITLE0=The Singing Cookes - Empty Tombs
TTITLE1=The Cooke Brothers - My God Still Moves
TTITLE2=Betty Jean Robinson - I'll Take The Road I Know
TTITLE3=Arlie Petree - There Ain't No Way
TTITLE4=Yhe Gems - Are You Ready
TTITLE5=Knight Family - There's Refuge In Jesus
TTITLE6=Tim and Kristy Peace - Keep On Running
TTITLE7=Dominion Trio - In His Arms I'm Not Afraid
TTITLE8=Clyde McKinney - For On Resurrection Morning
TTITLE9=The Gospel Foundation - God Has The Final Word
TTITLE10=The Florida Melody Boys - I'm Going To Heaven
EXTD=
EXTT0=
EXTT1=
EXTT2=
EXTT3=
EXTT4=
EXTT5=
EXTT6=
EXTT7=
EXTT8=
EXTT9=
EXTT10=
PLAYORDER=
